<?xml version="1.0" encoding="utf-8"?>
<!-- Generator: Adobe Illustrator 18.1.1, SVG Export Plug-In . SVG Version: 6.00 Build 0)  -->
<svg version="1.1" id="Background_of_Logo" xmlns="http://www.w3.org/2000/svg" xmlns:xlink="http://www.w3.org/1999/xlink" x="0px"
	 y="0px" viewBox="0 0 960 560" enable-background="new 0 0 960 560" xml:space="preserve">
<g id="Background">
</g>
<g id="Layer_4">
	<ellipse fill="#CEDBD9" stroke="#635A2F" stroke-miterlimit="10" cx="476.3" cy="284.4" rx="283" ry="267.5"/>
</g>
<g id="Tortoise_Shape">
	<path fill="#635A2F" d="M403.2,365.5c15-4.9,29.6-8.3,44.9-11.9c11.9-2.9,26.7-6.7,34.8-16.2c2-7,4.1-14.1,4.9-21.4
		c0.5-4.7,1.1-9.4,1.8-14.1c-1.1-2.9-2-5.9-2.2-9c-0.4-1.3-0.5-2.5-0.5-4c0.2-6.1-2-11.4-6.8-15.3c0.7-0.5,0.7-1.1,0-1.4
		c-0.4-0.4-0.7,0-0.7,0.5c-2.7-1.6-5-2.9-3.2-6.8c1.3-2.9,0.2-5.9-2.9-7.9c-1.8,3.2-4.5,5-8.7,3.8c7.2-3.4,7.2-9.4-0.5-15.5
		c0.9,3.4,4.1,6.7-0.7,9.4c-6.8,3.8-12.3,1.8-16.9-4c-1.6,4.9,0.4,8.5,0.7,12.4c0,0.4,0,0.7-0.2,0.9c1.3,4.1,5.2,5.4,8.7,6.5
		c8.7,2.9,10.8,10.5,15.5,16.9c-3.2,0.5-4.7-0.9-6.5-1.8c-1.8-0.9-4.1-2.9-5.9-1.8c-3.2,2-1.8-0.9-2-1.4c-2.2-7.2-6.8-9.4-13.2-5.9
		c-0.7,0.7-1.4,1.3-2,2.2c-0.5,0.7-1.1,1.4-1.6,2.2c0-1.1,0.9-2.2,0.2-3.2c-0.2-0.2-0.5-0.4-0.7-0.5c-4.1-1.6-6.3-8.5-12.1-4.9
		c-3.4,2.2-5,0-7.6-0.7c-3.2-0.9-7.4-10.1-10.6,0.2c0,0.2-1.4,0.2-1.8,0c-2.2-1.1-4-0.9-4.5,1.4c-0.7,2.7,1.4,3.8,3.8,4
		c3.6,0.4,6.5,1.4,7.2,5.4c0.4,2.3,2.2,2.5,4.3,2.9c2.7,0.5,5,2,7.4,3.6c3.8,2.5,6.7,6.7,12.6,6.1c-2.2,4.7-4.9,8.3-7.6,11.9
		c-4,5.2-10.3,7.9-14.2,13.3c-14.1,19.6-36.4,24.9-58.6,29.9c-2.7,0.5-5.8,0-5.4-4.3c0.9-9.6-2.2-19.3-0.7-28.8
		c0.2-1.4-0.2-3.2-3.1-4c-3.1,7.6-9.2,14.2-6.1,23.4c-4.3,1.1-7,0.2-6.1-4.7c1.1-4.9,0.2-8.3-6.1-8.5c-3.2,0-1.3-4-3.6-5
		c-2,4,0,5.9,3.4,7c3.2,0.9,2.9,3.1,1.8,5c-0.7,1.4,0.7,4.3-2.3,4.3c-2.5-0.2-3.1-2.9-4.1-4.5c-1.1-1.3-0.9-3.6-0.9-5.4
		c-0.2-6.1,0-12.1,0-19.5c-5.2,6.8-5.4,14.4-11.5,20.2c-0.2-7.8-4.9-8.8-10.6-8.7c-0.7,0-3.1-0.4-1.4,1.6c0.9,1.1,1.6,2-0.4,2.3
		c-1.3,0.2-2.5-0.2-2.9-1.6c-0.5-2.5-0.7-5,0.5-7.4c1.4-2.7,4.1-1.8,6.5-1.4c2.7,0.4,5.2,2.2,8.3,1.1c-2-5.2-6.1-5.2-10.8-4.5
		c-1.4,0.2-4,0.2-3.4-2.2c0.4-1.6,2.3-1.3,3.6-1.3c3.8,0.4,7.4,1.6,11.4,0.5c-5.8-2.7-12.3-1.3-17.8-3.6c-1.3-0.5-5,1.1-4.5,1.8
		c2.5,3.6-1.6,6.1-1.3,9.2c0.2,1.1-0.2,3.2-1.8,3.2c-1.6,0-2.9-1.1-3.6-2.9c-1.3-2.7-1.6-2.5-4.7-0.9c-1.8,1.1-3.2,0.2-4.7-0.7
		c-1.3-0.9-1.4-2.3-1.1-3.8c0.9-2.5,2.7-1.1,4.1-0.7c2.9,0.7,5.6,2.7,9,2.2c-2.2-6.8-11-4.1-14.4-9.4c4-2.3,7,2.2,10.6,0.5
		c-2.5-2.7-6.5-2-9.2-4c-3.4-2.3-5.9-3.6-6.1,2.2c0,1.6-1.6,4-3.1,1.4c-1.8-3.2-1.6-7-0.2-10.6c1.4-3.2,4.1-2.2,6.1-1.6
		c10.1,2.9,21.1,3.4,29.7,10.1c1.8,1.4,2.5,0.9,4.1-0.4c4-2.9,8.7-0.7,13-1.6c0.4,2.2,2,3.8,4,2.7c1.8-1.1,2.3-4.7,1.1-5.6
		c-5.6-4.5-2-9-0.4-13.2c4.3-11,9.2-21.6,13.9-32.6c0-0.7-0.2-1.3-0.5-1.8c-0.5-0.4-1.3-0.5-1.8-0.5c-2.5,3.2-4,7.4-9.2,8.1
		c-2.2,0.2-2.9,2.5-3.6,4.1c-1.4,4-2.2,8.1-8.7,5.8c-3.2-1.1-3.2,3.6-5.6,4.9c0.4,0.2,0.9,0.4,1.3,0.5c1.1,0.5,0.5,1.3-0.2,1.1
		c-5.8-1.6-4.7,3.4-6.7,5.8c-3.2,4.1-1.4,10.1-6.3,13.5c-1.6-5.9,1.6-11,3.1-16.2c0.9-3.4-1.6-12.1-4.9-13.2
		c-2.9-0.7-5.2,0.5-7.2,2.3c-2.5,2.5,0.5,3.4,1.8,4.9c1.4,1.8,4,2.9,2.3,5.8c-1.6,3.1-4.1,1.4-6.3,1.3c-1.6-0.2-3.6-1.1-4.9,0.5
		c-2,2.5,2.9,2.5,2.2,4.7c-3.1,0.9-5.8,1.8-9,2.7c1.8-10.6,5.2-20.5,11.2-29.2c8.1-12.1,12.1-27,26.3-34.8c2-1.1,1.4-2.7,0.4-4.1
		c-1.3-2-3.4-1.8-5.2-1.1c-2.9,1.3-4.7,4-6.8,6.1c-4,4-8.1,5.8-13,1.3c-1.1-0.9-2.2-1.6-3.8-0.9c-5.2,2.5-9.2,14.6-6.5,19.5
		c2.2-1.1-0.9-5.6,3.8-5.2c2.9,0.4,3.4-1.8,4.1-3.8c1.6-4.5,4.7-5,8.7-2.5c-3.4,4.9-7.9,9-8.7,15.5c-0.4,4.9-2.9,7.9-9.2,5.2
		c2.2,2.3,2.2,4.9,3.4,7l0,0c-1.1,7.6-5.2,3.6-8.7,2c-1.4-0.5-2.5-2.9-4.1-1.3c-1.4,1.3,0.2,2.9,0.5,4.5c0,0.4,0,0.5,0,0.9
		c-1.1,1.4-3.4,1.1-4.5,2.7c-0.4,0.4-0.9,0.7-1.4,0.9c-3.2-0.4-3.4-0.7-2.7-3.4c3.6-14.2,12.1-26.1,19.5-38.4
		c0.9-1.4,3.1-2.7,2.2-5.9c-5.2,6.8-12.3,10.8-13.9,19.5c-0.9,5.2-3.2,11.2-7,15c-3.4,3.4-5,7.4-7.6,10.8c-2.3,3.1-3.2,6.5,0.5,9.9
		c4.3,3.8,5.6,10.1,11.2,13.2c2.2,1.3,0.2,2.9,0.2,4.3c0,1.8-1.6,2.3-3.1,1.6c-1.8-0.7-3.4-1.4-3.6,1.3c-0.9,7.8-10.1,11.5-9.9,19.6
		l-0.5,0.2v-0.5c-2.9-4-3.1-8.1-1.3-12.4c2.5-6.3,5-12.4,7.4-18.7c-2,0.7-3.2,1.8-4.1,3.1c-4,5.2-7.8,10.6-11.9,15.9
		c-1.6,2-4.3,4.7-6.5,3.6c-3.1-1.4-0.5-4.5,0.5-6.7c2.3-4.9,5-9.6,7.9-14.8c-5.6,1.3-5.9,6.7-9.6,8.3c-7.9,3.6-6.8,9.4-4.1,15.3
		c2.7,5.8,4.3,11.7,4.9,18c0.2,0,0.4,0.2,0.5,0.2c1.3-1.4,0.7-4.1,3.1-4c2.2,0.2,3.8,2,4.7,4c0.9,2.2,1.6,4.1,2.3,6.3
		c0.4-0.4,0.5-0.7,0.9-0.7c1.3-0.2,25.6,13.9,25.8,15.1c0,0.2,4.3,0.9,7.9,1.8c1.6,0,3.2,0.2,4.9,0.5c0.2,0,0.4,0.2,0.7,0.2
		c6.5,0.2,13.3,2.9,18.9,5.6c1.1,0.2,2.2,0.5,3.1,0.7c10.3,2.7,19.1,9,28.8,12.8c3.8,1.4,7.8,2.2,11.5,3.1
		C361,368.6,383.6,372,403.2,365.5z"/>
	<path fill="#635A2F" d="M351.9,226.4c-3.1-0.5-5.6-2.9-6.8-4.7c-5.9-9.4-16-7.8-24.9-9c-1.6-0.2-3.6,0.7-4.5-1.1
		c-4.5-8.8-11.5-7-18.9-4.3c-1.3,0.4-2.7,1.4-4.1,0.2c4-7.2,14.4-13.7,20.4-12.6l-0.2-0.2c2.5,2,5,4,7.8,5.8c2.5-1.3,3.4,1.3,5.2,2
		c5.6,0,11.4,2.7,17.1,0.4c1.3-0.7,2.5-2.3,3.4,0.4c5.2-7.6,13.3-10.3,22.2-10.1c4.7,0,8.3-4.3,12.8-2.7c2.2,0.9,8.3-2.5,5.9,4.5
		c-0.4,1.4,4.9,0.4,5,3.6l0.2-0.2c-12.4,0.2-24.5,2-35.5,7.9c-2.9,1.6-5.9,2.7-9.4,6.8c9.9-4,10.6,3.8,14.1,7.8
		c2.9,3.4,0.5,7-1.6,9.4c-2.3,2.7-5,1.1-7.2-1.4C351.7,228.4,351.1,227.6,351.9,226.4z"/>
	<path fill="#635A2F" d="M425.7,204.6c-0.4-0.4-0.5-0.7-0.9-1.1c-1.3-0.4-2.3-0.7-3.6-1.1c-0.7-0.2-1.4-0.5-2.2-0.7
		c0.2,0.2,0.2,0.5,0.4,0.7c0.9,1.8,4.5,2.7,2.5,5.8c-7.4-1.4-14.6-2.7-20.9-7.2c-2.5-1.8-5.4-2.5-8.7-2.7c0.9,3.1,4,4.3,6.1,6.3
		c3.2,2.9,4.9,6.3,5.4,10.3c0.5,4.1,0.5,8.3-5.9,7c-2-0.4-3.4,0.4-4.7,2.2c-5.6,7.9-12.4,8.5-18.9,1.3c-2-2.2-3.6-4.7-6.8-3.4
		c-3.2,1.3-1.3,5.2-3.2,7.8c-0.5,0.7,0.7,5,4.5,5.4c4.9,0.5,9,3.1,13.7,4.1c5.6,1.4,11.5,2,16.8-1.8c3.1-2.2,6.7-2.7,10.3-3.1
		c12.3-1.3,12.6-1.3,9-12.1c-2-5.9,0.9-6.3,5.6-6.1c5.4,0.2,10.1,2.9,17.3,4.1C434.6,214.7,430.1,209.8,425.7,204.6z"/>
	<path fill="#635A2F" d="M309.7,236.8c-1.8-3.2-1.1-6.3,1.3-9c4.7-5.2,8.5,0.5,12.6,1.3c2.7,0.5,0.9,4.1,0.2,5.9
		c-1.4,3.4-3.4,6.7-7,8.7c-1.6,0.9-2.5,4.7-5.8,1.4c-2-2-5-3.2-2-6.5C309.5,238.5,309.5,237.6,309.7,236.8z"/>
	<path fill="#635A2F" d="M344.8,304.1c-9.2,0.9-9.9,0.4-9.4-8.1c-0.7,0.2-1.6,0-2,0.4c-1.1,1.1,0.2,4.1-3.1,3.6
		c-1.6-0.4-2-1.8-1.1-2.5c1.6-1.3,0.4-5.2,4.5-4.1c5,1.4,10.3,2.3,15.3,3.6c3.2,0.9,4.3,6.7,1.8,9.2c-0.4,0.4-0.7,0.7-0.9,1.1
		c-1.8,2-3.2,6.1-6.3,4.5C341,310.4,344.6,307.1,344.8,304.1z"/>
	<path fill="#635A2F" d="M443.6,271.8c-7.2-0.9-5.9-5.2-3.6-9.2c1.6-2.9,3.2-5,0-7.6h0.2c-4.9-1.8-5-6.8-7.8-10.3
		c-0.9-1.3-0.2-2.9,1.1-3.6c1.3-0.7,2,0.7,2.9,1.3c3.8,2.9,5.8,6.7,7,11c1.1,3.6,2.3,7,5.9,9l-0.2-0.4c3.4,5.2-1.1,7.2-4.5,9.4
		C444.3,271.6,444,271.8,443.6,271.8z"/>
	<path fill="#635A2F" d="M454.2,237.7c-0.2,1.6-1.6,3.4-2.5,2.3c-4.3-4.5-13-2.9-15.5-9.9c-0.9-2.3-3.8-4.5-2.2-6.8
		c1.8-2.5,4.9,0.2,7.4,0.2C444.1,223.7,454.4,235.6,454.2,237.7z"/>
	<path fill="#635A2F" d="M351.9,226.4c0.4,0.9,0.5,1.6,0.9,2.3c1.4,7.9-5.6,16.9-13.2,16.8l0,0c-2-0.9-0.5-2.5-0.7-3.8
		c0.2-0.5,0.4-1.1,0.5-1.6c-0.7-2.5,1.8-4.3,1.8-7c-0.2-3.4,0.5-7.4,6.1-4.3C350,230.3,350,226.9,351.9,226.4z"/>
	<path fill="#635A2F" d="M388.4,297.2c-2.3,0.4-6.8,3.6-8.1,2.9c-1.6-0.9,3.4-6.8,4.3-7.8c2.2-2.2,4.1-4.5,6.3-6.5
		c0.7-0.7,2.3-0.9,2.2-2.3c-0.4-1.6-3.8-4,0.2-4.3c2.5-0.2,5.8,2,7.9,4c2,1.6-0.9,3.1-1.6,4.5C397.5,292.7,391.7,293.8,388.4,297.2z
		"/>
	<path fill="#635A2F" d="M312.7,194.8l0.2,0.2c4.5-6.7,11.7-8.5,19.1-9c6.8-0.5,13.9-0.5,20.7,1.6c-5.4,2-5.4,1.6-10.1,0.2
		c-7.2-2.2-13.7,0.2-19.8,3.6C319.6,193.4,316.5,195.2,312.7,194.8z"/>
	<path fill="#635A2F" d="M385.7,248.4c6.3,0.7,8.1,4.7,10.6,7.9c2,2.5,0.4,4.7-1.4,5.9c-2.7,2-3.6-1.1-4.7-2.5
		C387.7,256.5,386.8,252.5,385.7,248.4z"/>
	<path fill="#635A2F" d="M376,214.5c4.1-2.3,7-4.3,1.1-6.5c-1.1-0.4-2.7,0-2.2-1.8c0.5-1.8,2.2-1.3,3.6-1.1
		c4.1,0.5,6.5,6.5,11.7,3.8c0.2,0.9,0.7,1.6,0.7,2.5c0,1.4-0.7,2.3-2.5,2.9C384.5,215.2,380.7,215.9,376,214.5z"/>
	<path fill="#635A2F" d="M323.4,203.8c-0.9-1.1-2-2.2-2.9-3.2c-0.2-2.2-0.2-5,3.1-2.7c6.3,4.7,13.2,3.8,20,2.5
		c2.7-0.5,2.9,0.7,2.5,2.7c-0.5,0-0.9,0-1.4-0.2c-2.7,2.7-5.9,2.2-9.2,1.6C331.5,204.4,327.3,204.6,323.4,203.8z"/>
	<path fill="#635A2F" d="M373.3,327.3c5.8,2.9,4.5,6.1,0.2,10.1c-3.8-5.4-5.6-11.2-6.7-18.2c3.4,2,3.2,5.2,4.9,7
		C372.6,326.1,372.9,326.4,373.3,327.3z"/>
	<path fill="#635A2F" d="M364.8,248.4c2.2-0.2,3.4,2.5,3.8,5.8c0.2,1.6-0.7,2.9-2.3,2.7c-3.2-0.5-5.4-2.9-6.5-5.9
		C358.9,248.2,361,248.5,364.8,248.4z"/>
	<path fill="#635A2F" d="M452.8,252.3c3.4-3.8,5.8-6.3,9.7-5.8c1.3,0.2,1.6,2.3,0.9,3.6C461.4,254.1,458,252.3,452.8,252.3z"/>
	<path fill="#635A2F" d="M406.6,247.1c-0.2,2.2-1.1,3.8-3.4,3.6c-2.2,0-3.6-1.3-3.4-3.4c0.2-2.2,2-3.1,4-3.2
		C406.1,243.9,406.3,245.7,406.6,247.1z"/>
	<path fill="#635A2F" d="M373.3,327.3c-0.5-0.4-1.1-0.7-1.6-1.1c-1.1-3.6-0.7-7.6-1.3-11.5c1.6,3.1,3.4,6.3,5,9.4
		C376.4,326.1,375.5,327.1,373.3,327.3z"/>
	<path fill="#635A2F" d="M308.6,256.8c-3.6-0.4-11-7.9-11.2-11.2c0-3.1,3.8-3.4,6.1-5.8C304.6,243.7,301.7,253.8,308.6,256.8z"/>
	<path fill="#635A2F" d="M410.1,250.9c2.5,5.2,5.4-6.3,7.6,0.2c0.4,1.3,1.8,3.2-0.5,4.1C413.5,256.1,411.9,253.6,410.1,250.9z"/>
	<path fill="#635A2F" d="M358.9,312.5c-1.4-2.9-3.4-5.2-0.4-7.8c0.4-0.4,1.3-0.9,2,0.4C361.8,308,361.4,310,358.9,312.5z"/>
	<path fill="#635A2F" d="M440.2,255H440c1.3,4.5-1.6,6.7-5.8,9.4C434.6,259.5,437.5,257.4,440.2,255z"/>
	<path fill="#635A2F" d="M345,281.5c-0.9-1.4,0.5-18.7,4.3-19.5c0.5-0.2,1.4,0.7,1.8,0.7C365,267.7,361.6,283.2,345,281.5z"/>
	<path fill="#635A2F" d="M447.7,277.6c-0.4,0.4-0.7,0.9-1.3,1.3c-3.6,2.2-3.4-1.4-4.7-2.9l0.2,0.2c0.5-1.4,1.1-3.1,1.4-4.5l-0.4,0.4
		c1.6-0.9,3.4-1.4,5,0.2C450.1,274.1,448.8,275.9,447.7,277.6z"/>
	<path fill="#635A2F" d="M427.9,265.9c1.3,0.2,2.5,0.5,2.9,1.6c0.4,1.6-1.1,1.6-2.2,1.8c-1.3,0.2-2.3-0.2-2.3-1.8
		C426.3,266.6,426.8,265.9,427.9,265.9z"/>
	<path fill="#635A2F" d="M383.4,228.7c-0.7,0-2.2,0-2-1.6c0.2-1.3,1.3-1.8,2.5-1.8c1.1,0,1.8,0.4,2,1.4
		C386.1,228.4,385,228.7,383.4,228.7z"/>
	<path fill="#635A2F" d="M308.6,256.8c2.9,0.5,5.8,1.1,9.7,1.8C313.8,260.4,311.3,257.7,308.6,256.8z"/>
	<path fill="#635A2F" d="M339.8,240.3c0,1.8-0.2,3.6-0.2,5.6c-0.7-0.7-1.6-1.4-2.3-2.2v0.2C337.8,242.2,338.3,241,339.8,240.3z"/>
	<path fill="#635A2F" d="M339.8,240.3c-0.2,1.6-1.3,2.5-2.5,3.4c0-1.4,0.4-2.9,2.2-3.4H339.8z"/>
	<path fill="#635A2F" d="M447.7,277.6c0.5-3.2-2.5-4-4.5-5.6c-0.7-4.7,5.4-5.8,5.9-9.9c6.1,2.2,11.4,6.7,18.6,6.5
		c0.5,0,1.8,0.5,1.8,0.7c-2,9,9.6,11.2,10.3,18.9c0.2,2.2,1.1,4.3-0.4,5.8c-1.8,1.8-4-0.2-6.1-0.5c-1.1-0.2-1.8-1.6-2.9-2
		c-4-1.4-6.8-8.1-12.4-1.8c-0.9,1.1-4.5,1.4-7-1.1c5.8-1.1,5.4-4.5,3.4-8.3C453.3,278.3,451.9,275.2,447.7,277.6z"/>
	<path fill="#635A2F" d="M404.3,365.2c0.4-0.2,0.5-0.2,0.9-0.4c1.3-0.5,2.5-1.1,3.6-1.6c10.3-4.9,21.4-7.8,31.2-14.1
		c3.4-2.2,6.7-2.9,5.8-8.1c0.9-2.9-1.1-5.4-4-7c-2.7-1.6-4.3,0.9-6.3,2.2c-10.1,6.7-20.2,13.2-30.3,19.8c-2.9,2-7.8,4-5.9,7.4
		C400.3,365.7,402.1,365.9,404.3,365.2z"/>
	<path fill="#635A2F" d="M442,276.1c1.6,0.9,3.1,2,4.7,2.9c-1.4,2.5,5,6.1-1.3,7.8c-1.6,0.5-2,4.7-4.9,1.8c-2.5-2.5-5-4.9-7-7.8
		c-0.9-1.4,1.3-2.2,2.5-2.7C437.8,277.2,440.3,277.9,442,276.1z"/>
	<path fill="#635A2F" d="M460.4,339.9c-4-1.4-8.3-1.1-11.7-3.4c-1.4-0.9-3.6-1.3-3.2-3.1c0.5-2.3,2.9-2,4.9-2
		C456,331.3,458.2,335.6,460.4,339.9z"/>
	<path fill="#635A2F" d="M320.1,268c0.9,5.6-0.4,11.2,0.5,16.8c0.2,1.1-0.4,2.5-2,2.2c-1.1-0.2-2.5-0.5-3.2-1.3
		c-1.1-1.1-0.4-2,1.1-2.3c1.1-0.2,2.2-1.1,1.4-1.6C310.9,276.1,320.1,272.7,320.1,268z"/>
	<path fill="#635A2F" d="M330.2,333.6c-3.8,3.8-6.3,2.3-9.9,0C323.7,333.6,326.3,333.6,330.2,333.6z"/>
	<path fill="#635A2F" d="M313.3,324.6c-3.8,1.6-5.6,1.4-7,0.2c-0.4-0.2,0.2-1.1,0.2-1.8C308.2,323.3,310,323.7,313.3,324.6z"/>
	<path fill="#635A2F" d="M323.4,203.8c7-1.8,14.2,1.8,21.3-0.7C337.8,209.1,330.6,204.9,323.4,203.8z"/>
	<path fill="#635A2F" d="M393.7,233.9c-3.2,3.1-6.5,2-9.7,2.5C386.6,234.3,386.6,234.3,393.7,233.9z"/>
	<rect x="458.2" y="218.6" fill="none" width="266.9" height="68.3"/>
	<text transform="matrix(1 0 0 1 458.2608 273.9485)" fill="#FFFFFF" font-family="'STIXGeneral-Regular'" font-size="72.0953"> </text>
	
		<text transform="matrix(1 0 0 1 458.2608 273.9485)" fill="none" stroke="#FFFFFF" stroke-miterlimit="10" font-family="'STIXGeneral-Regular'" font-size="72.0953"> </text>
	<text transform="matrix(1 0 0 1 476.2848 273.9485)" fill="#FFFFFF" font-family="'STIXGeneral-Regular'" font-size="81.1072">Hidden </text>
	
		<text transform="matrix(1 0 0 1 476.2848 273.9485)" fill="none" stroke="#050505" stroke-miterlimit="10" font-family="'STIXGeneral-Regular'" font-size="81.1072">Hidden </text>
	<text transform="matrix(1 0 0 1 432.0001 339.9453)" fill="#FFFFFF" font-family="'STIXGeneral-Regular'" font-size="86.5143">Tortoise </text>
	
		<text transform="matrix(1 0 0 1 432.0001 339.9453)" fill="none" stroke="#000000" stroke-miterlimit="10" font-family="'STIXGeneral-Regular'" font-size="86.5143">Tortoise </text>
	<text transform="matrix(1 0 0 1 437.2002 206.2478)" fill="#FFFFFF" font-family="'STIXGeneral-Regular'" font-size="63.0834">The</text>
	
		<text transform="matrix(1 0 0 1 437.2002 206.2478)" fill="none" stroke="#000000" stroke-miterlimit="10" font-family="'STIXGeneral-Regular'" font-size="63.0834">The</text>
</g>
</svg>
